<mxfile host="Electron" modified="2025-03-26T10:25:18.157Z" agent="Mozilla/5.0 (Windows NT 10.0; Win64; x64) AppleWebKit/537.36 (KHTML, like Gecko) draw.io/24.6.4 Chrome/124.0.6367.207 Electron/30.0.6 Safari/537.36" etag="RVGQiuyyZAvQC2wTEw8C" version="24.6.4" type="device" pages="4">
  <diagram id="IUDEr5txEv4h4o1CCfPa" name="QuickRef">
    <mxGraphModel dx="1834" dy="1236" grid="0" gridSize="10" guides="1" tooltips="1" connect="1" arrows="1" fold="1" page="0" pageScale="1" pageWidth="827" pageHeight="1169" math="0" shadow="0">
      <root>
        <mxCell id="0" />
        <mxCell id="1" parent="0" />
        <mxCell id="HoqUG4fmubagimVRng_m-1" value="Package1" style="shape=folder;fontStyle=1;tabWidth=57;tabHeight=15;tabPosition=left;html=1;boundedLbl=1;whiteSpace=wrap;" parent="1" vertex="1">
          <mxGeometry x="-8.5" y="66" width="170" height="76" as="geometry" />
        </mxCell>
        <mxCell id="HoqUG4fmubagimVRng_m-2" value="&lt;p style=&quot;margin:0px;margin-top:4px;margin-left:7px;text-align:left;&quot;&gt;&lt;b&gt;&amp;nbsp; &amp;nbsp;bdd&lt;/b&gt;&amp;nbsp;System Context&lt;/p&gt;" style="html=1;shape=mxgraph.sysml.package;overflow=fill;labelX=143;strokeWidth=1;align=center;container=1;recursiveResize=0;collapsible=1;rotatable=1;allowArrows=0;movableLabel=0;resizable=1;resizeWidth=1;resizeHeight=1;comic=0;" parent="1" vertex="1">
          <mxGeometry x="-8.5" y="-45" width="211" height="81" as="geometry" />
        </mxCell>
        <mxCell id="WK4gBDdulFERRl-5jgjh-3" style="rounded=0;orthogonalLoop=1;jettySize=auto;html=1;endArrow=none;endFill=0;" parent="1" source="XlQ-h32_pS9Mxg_Y0ByV-2" target="XlQ-h32_pS9Mxg_Y0ByV-3" edge="1">
          <mxGeometry relative="1" as="geometry" />
        </mxCell>
        <mxCell id="XlQ-h32_pS9Mxg_Y0ByV-2" value="port1" style="fontStyle=0;labelPosition=right;verticalLabelPosition=bottom;align=left;verticalAlign=top;spacingLeft=0;spacing=0;spacingTop=-5;" parent="1" vertex="1">
          <mxGeometry x="-6" y="190" width="20" height="20" as="geometry" />
        </mxCell>
        <mxCell id="XlQ-h32_pS9Mxg_Y0ByV-3" value="port1" style="fontStyle=0;labelPosition=right;verticalLabelPosition=top;align=left;verticalAlign=bottom;spacingLeft=0;spacing=0;" parent="1" vertex="1">
          <mxGeometry x="-6" y="271" width="20" height="20" as="geometry" />
        </mxCell>
        <mxCell id="WK4gBDdulFERRl-5jgjh-6" style="rounded=0;orthogonalLoop=1;jettySize=auto;html=1;endArrow=none;endFill=0;" parent="1" source="WK4gBDdulFERRl-5jgjh-4" target="WK4gBDdulFERRl-5jgjh-5" edge="1">
          <mxGeometry relative="1" as="geometry" />
        </mxCell>
        <mxCell id="WK4gBDdulFERRl-5jgjh-5" value="port1" style="html=1;shape=mxgraph.sysml.port;sysMLPortType=flowN;labelPosition=right;verticalLabelPosition=top;align=left;verticalAlign=bottom;spacing=0;" parent="1" vertex="1">
          <mxGeometry x="79" y="271" width="20" height="20" as="geometry" />
        </mxCell>
        <mxCell id="WK4gBDdulFERRl-5jgjh-4" value="port1" style="html=1;shape=mxgraph.sysml.port;sysMLPortType=flowN;strokeColor=default;align=left;verticalAlign=top;spacingLeft=0;spacing=0;fontFamily=Helvetica;fontSize=12;fontColor=default;fontStyle=0;fillColor=default;labelPosition=right;verticalLabelPosition=bottom;direction=east;spacingTop=-5;" parent="1" vertex="1">
          <mxGeometry x="79" y="190" width="20" height="20" as="geometry" />
        </mxCell>
        <mxCell id="WK4gBDdulFERRl-5jgjh-8" value="port1" style="html=1;shape=mxgraph.sysml.port;sysMLPortType=doubleH;labelPosition=right;verticalLabelPosition=top;align=left;verticalAlign=bottom;spacing=0;direction=south;editable=1;movable=1;resizable=0;rotatable=1;deletable=1;locked=0;connectable=1;recursiveResize=0;allowArrows=0;" parent="1" vertex="1">
          <mxGeometry x="164" y="271" width="20" height="20" as="geometry" />
        </mxCell>
        <mxCell id="WK4gBDdulFERRl-5jgjh-11" style="edgeStyle=none;shape=connector;rounded=0;orthogonalLoop=1;jettySize=auto;html=1;strokeColor=default;align=center;verticalAlign=middle;fontFamily=Helvetica;fontSize=11;fontColor=default;labelBackgroundColor=default;endArrow=none;endFill=0;" parent="1" source="WK4gBDdulFERRl-5jgjh-9" target="WK4gBDdulFERRl-5jgjh-8" edge="1">
          <mxGeometry relative="1" as="geometry" />
        </mxCell>
        <mxCell id="WK4gBDdulFERRl-5jgjh-9" value="port1" style="html=1;shape=mxgraph.sysml.port;sysMLPortType=doubleH;labelPosition=right;verticalLabelPosition=bottom;align=left;verticalAlign=top;spacing=0;direction=south;spacingTop=-5;" parent="1" vertex="1">
          <mxGeometry x="164" y="190" width="20" height="20" as="geometry" />
        </mxCell>
        <mxCell id="WK4gBDdulFERRl-5jgjh-12" style="rounded=0;orthogonalLoop=1;jettySize=auto;html=1;endArrow=none;endFill=0;" parent="1" source="WK4gBDdulFERRl-5jgjh-13" target="WK4gBDdulFERRl-5jgjh-14" edge="1">
          <mxGeometry relative="1" as="geometry" />
        </mxCell>
        <mxCell id="WK4gBDdulFERRl-5jgjh-13" value="port1" style="fontStyle=0;labelPosition=right;verticalLabelPosition=top;align=left;verticalAlign=bottom;spacingLeft=0;spacing=0;" parent="1" vertex="1">
          <mxGeometry x="-2" y="341" width="20" height="20" as="geometry" />
        </mxCell>
        <mxCell id="WK4gBDdulFERRl-5jgjh-14" value="port1" style="fontStyle=0;labelPosition=left;verticalLabelPosition=top;align=right;verticalAlign=bottom;spacingLeft=0;spacing=0;" parent="1" vertex="1">
          <mxGeometry x="128" y="341" width="20" height="20" as="geometry" />
        </mxCell>
        <mxCell id="WK4gBDdulFERRl-5jgjh-15" style="rounded=0;orthogonalLoop=1;jettySize=auto;html=1;endArrow=none;endFill=0;" parent="1" source="WK4gBDdulFERRl-5jgjh-17" target="WK4gBDdulFERRl-5jgjh-16" edge="1">
          <mxGeometry relative="1" as="geometry" />
        </mxCell>
        <mxCell id="WK4gBDdulFERRl-5jgjh-16" value="port1" style="html=1;shape=mxgraph.sysml.port;sysMLPortType=flowN;labelPosition=left;verticalLabelPosition=top;align=right;verticalAlign=bottom;spacing=0;direction=south;" parent="1" vertex="1">
          <mxGeometry x="128" y="394" width="20" height="20" as="geometry" />
        </mxCell>
        <mxCell id="WK4gBDdulFERRl-5jgjh-17" value="port1" style="html=1;shape=mxgraph.sysml.port;sysMLPortType=flowN;strokeColor=default;align=left;verticalAlign=bottom;spacingLeft=0;spacing=0;fontFamily=Helvetica;fontSize=12;fontColor=default;fontStyle=0;fillColor=default;labelPosition=right;verticalLabelPosition=top;direction=south;" parent="1" vertex="1">
          <mxGeometry x="-2" y="394" width="20" height="20" as="geometry" />
        </mxCell>
        <mxCell id="WK4gBDdulFERRl-5jgjh-18" value="port1" style="html=1;shape=mxgraph.sysml.port;sysMLPortType=doubleH;labelPosition=left;verticalLabelPosition=top;align=right;verticalAlign=bottom;spacing=0;" parent="1" vertex="1">
          <mxGeometry x="128" y="446" width="20" height="20" as="geometry" />
        </mxCell>
        <mxCell id="WK4gBDdulFERRl-5jgjh-19" style="edgeStyle=none;shape=connector;rounded=0;orthogonalLoop=1;jettySize=auto;html=1;strokeColor=default;align=center;verticalAlign=middle;fontFamily=Helvetica;fontSize=11;fontColor=default;labelBackgroundColor=default;endArrow=none;endFill=0;" parent="1" source="WK4gBDdulFERRl-5jgjh-20" target="WK4gBDdulFERRl-5jgjh-18" edge="1">
          <mxGeometry relative="1" as="geometry" />
        </mxCell>
        <mxCell id="WK4gBDdulFERRl-5jgjh-20" value="port1" style="html=1;shape=mxgraph.sysml.port;sysMLPortType=doubleH;labelPosition=right;verticalLabelPosition=top;align=left;verticalAlign=bottom;spacing=0;" parent="1" vertex="1">
          <mxGeometry x="-2" y="446" width="20" height="20" as="geometry" />
        </mxCell>
      </root>
    </mxGraphModel>
  </diagram>
  <diagram name="Arrows" id="vJgFVtUrLd-SMWsb0N23">
    <mxGraphModel dx="2849" dy="1194" grid="0" gridSize="10" guides="0" tooltips="1" connect="1" arrows="1" fold="1" page="0" pageScale="1" pageWidth="827" pageHeight="1169" math="0" shadow="0">
      <root>
        <mxCell id="0" />
        <mxCell id="1" parent="0" />
        <mxCell id="FfYlqvqrgsapNUzjtLtr-2" value="Extends/Inherits/Is-a" style="endArrow=block;endSize=16;endFill=0;html=1;rounded=0;entryX=0.5;entryY=1;entryDx=0;entryDy=0;" edge="1" parent="1" source="FfYlqvqrgsapNUzjtLtr-12" target="FfYlqvqrgsapNUzjtLtr-11">
          <mxGeometry width="160" relative="1" as="geometry">
            <mxPoint x="-213" y="381" as="sourcePoint" />
            <mxPoint x="-480" y="333" as="targetPoint" />
          </mxGeometry>
        </mxCell>
        <mxCell id="FfYlqvqrgsapNUzjtLtr-11" value="&lt;p style=&quot;margin:0px;margin-top:4px;text-align:center;&quot;&gt;&lt;b&gt;Base Class&lt;/b&gt;&lt;/p&gt;&lt;hr size=&quot;1&quot; style=&quot;border-style:solid;&quot;&gt;&lt;div style=&quot;height:2px;&quot;&gt;&lt;/div&gt;" style="verticalAlign=top;align=left;overflow=fill;html=1;whiteSpace=wrap;" vertex="1" parent="1">
          <mxGeometry x="-303" y="248" width="140" height="60" as="geometry" />
        </mxCell>
        <mxCell id="FfYlqvqrgsapNUzjtLtr-12" value="&lt;p style=&quot;margin:0px;margin-top:4px;text-align:center;&quot;&gt;&lt;b&gt;Derived Class&lt;/b&gt;&lt;/p&gt;&lt;hr size=&quot;1&quot; style=&quot;border-style:solid;&quot;&gt;&lt;div style=&quot;height:2px;&quot;&gt;&lt;/div&gt;" style="verticalAlign=top;align=left;overflow=fill;html=1;whiteSpace=wrap;" vertex="1" parent="1">
          <mxGeometry x="-303" y="374" width="140" height="60" as="geometry" />
        </mxCell>
        <mxCell id="FfYlqvqrgsapNUzjtLtr-13" value="«interface»&lt;br&gt;&lt;b&gt;Interface Class&lt;/b&gt;" style="html=1;whiteSpace=wrap;" vertex="1" parent="1">
          <mxGeometry x="-110" y="248" width="110" height="50" as="geometry" />
        </mxCell>
        <mxCell id="FfYlqvqrgsapNUzjtLtr-15" style="rounded=0;orthogonalLoop=1;jettySize=auto;html=1;exitX=0;exitY=0;exitDx=120;exitDy=42.5;exitPerimeter=0;endArrow=none;endFill=0;dashed=1;entryX=0;entryY=0.75;entryDx=0;entryDy=0;" edge="1" parent="1" source="FfYlqvqrgsapNUzjtLtr-14" target="FfYlqvqrgsapNUzjtLtr-11">
          <mxGeometry relative="1" as="geometry" />
        </mxCell>
        <mxCell id="FfYlqvqrgsapNUzjtLtr-14" value="&lt;span style=&quot;background-color: rgb(255, 255, 255);&quot;&gt;Base class is a generalization&lt;/span&gt;" style="shape=note2;boundedLbl=1;whiteSpace=wrap;html=1;size=25;verticalAlign=middle;align=center;" vertex="1" parent="1">
          <mxGeometry x="-449" y="250" width="120" height="60" as="geometry" />
        </mxCell>
        <mxCell id="FfYlqvqrgsapNUzjtLtr-16" value="&lt;p style=&quot;margin:0px;margin-top:4px;text-align:center;&quot;&gt;&lt;b&gt;Class&lt;/b&gt;&lt;/p&gt;&lt;hr size=&quot;1&quot; style=&quot;border-style:solid;&quot;&gt;&lt;div style=&quot;height:2px;&quot;&gt;&lt;/div&gt;" style="verticalAlign=top;align=left;overflow=fill;html=1;whiteSpace=wrap;" vertex="1" parent="1">
          <mxGeometry x="-125" y="374" width="140" height="60" as="geometry" />
        </mxCell>
        <mxCell id="FfYlqvqrgsapNUzjtLtr-17" value="" style="endArrow=block;dashed=1;endFill=0;endSize=12;html=1;rounded=0;entryX=0.5;entryY=1;entryDx=0;entryDy=0;exitX=0.5;exitY=0;exitDx=0;exitDy=0;" edge="1" parent="1" source="FfYlqvqrgsapNUzjtLtr-16" target="FfYlqvqrgsapNUzjtLtr-13">
          <mxGeometry width="160" relative="1" as="geometry">
            <mxPoint x="-200" y="507" as="sourcePoint" />
            <mxPoint x="-40" y="507" as="targetPoint" />
          </mxGeometry>
        </mxCell>
        <mxCell id="FfYlqvqrgsapNUzjtLtr-18" value="Implements/Realize" style="edgeLabel;html=1;align=center;verticalAlign=middle;resizable=0;points=[];" vertex="1" connectable="0" parent="FfYlqvqrgsapNUzjtLtr-17">
          <mxGeometry x="-0.1283" y="-2" relative="1" as="geometry">
            <mxPoint as="offset" />
          </mxGeometry>
        </mxCell>
        <mxCell id="FfYlqvqrgsapNUzjtLtr-19" value="&lt;p style=&quot;margin:0px;margin-top:4px;text-align:center;&quot;&gt;&lt;b&gt;A&lt;/b&gt;&lt;/p&gt;&lt;hr size=&quot;1&quot; style=&quot;border-style:solid;&quot;&gt;&lt;div style=&quot;height:2px;&quot;&gt;&lt;/div&gt;" style="verticalAlign=top;align=left;overflow=fill;html=1;whiteSpace=wrap;" vertex="1" parent="1">
          <mxGeometry x="-303" y="493" width="140" height="60" as="geometry" />
        </mxCell>
        <mxCell id="FfYlqvqrgsapNUzjtLtr-20" value="&lt;p style=&quot;margin: 4px 0px 0px; text-align: center;&quot;&gt;&lt;b&gt;B&lt;/b&gt;&lt;/p&gt;&lt;hr style=&quot;border-style: solid;&quot; size=&quot;1&quot;&gt;" style="verticalAlign=top;align=left;overflow=fill;html=1;whiteSpace=wrap;" vertex="1" parent="1">
          <mxGeometry x="-303" y="667" width="140" height="60" as="geometry" />
        </mxCell>
        <mxCell id="FfYlqvqrgsapNUzjtLtr-21" value="" style="endArrow=diamondThin;endFill=0;endSize=24;html=1;rounded=0;entryX=0.5;entryY=1;entryDx=0;entryDy=0;exitX=0.5;exitY=0;exitDx=0;exitDy=0;" edge="1" parent="1" source="FfYlqvqrgsapNUzjtLtr-20" target="FfYlqvqrgsapNUzjtLtr-19">
          <mxGeometry width="160" relative="1" as="geometry">
            <mxPoint x="-348" y="591" as="sourcePoint" />
            <mxPoint x="-188" y="591" as="targetPoint" />
          </mxGeometry>
        </mxCell>
        <mxCell id="FfYlqvqrgsapNUzjtLtr-22" value="Aggregation" style="edgeLabel;html=1;align=center;verticalAlign=middle;resizable=0;points=[];" vertex="1" connectable="0" parent="FfYlqvqrgsapNUzjtLtr-21">
          <mxGeometry x="-0.2932" relative="1" as="geometry">
            <mxPoint as="offset" />
          </mxGeometry>
        </mxCell>
        <mxCell id="FfYlqvqrgsapNUzjtLtr-23" value="1" style="edgeLabel;html=1;align=center;verticalAlign=middle;resizable=0;points=[];" vertex="1" connectable="0" parent="FfYlqvqrgsapNUzjtLtr-21">
          <mxGeometry x="0.4667" relative="1" as="geometry">
            <mxPoint x="6" as="offset" />
          </mxGeometry>
        </mxCell>
        <mxCell id="FfYlqvqrgsapNUzjtLtr-24" value="1..*" style="edgeLabel;html=1;align=center;verticalAlign=middle;resizable=0;points=[];" vertex="1" connectable="0" parent="FfYlqvqrgsapNUzjtLtr-21">
          <mxGeometry x="-0.8526" y="-1" relative="1" as="geometry">
            <mxPoint x="10" y="-2" as="offset" />
          </mxGeometry>
        </mxCell>
        <mxCell id="FfYlqvqrgsapNUzjtLtr-26" style="rounded=0;orthogonalLoop=1;jettySize=auto;html=1;exitX=0;exitY=0;exitDx=169;exitDy=51.5;exitPerimeter=0;endArrow=none;endFill=0;dashed=1;" edge="1" parent="1" source="FfYlqvqrgsapNUzjtLtr-27">
          <mxGeometry relative="1" as="geometry">
            <mxPoint x="-233" y="610" as="targetPoint" />
            <mxPoint x="-326" y="605.5" as="sourcePoint" />
          </mxGeometry>
        </mxCell>
        <mxCell id="FfYlqvqrgsapNUzjtLtr-27" value="&lt;span style=&quot;background-color: rgb(255, 255, 255);&quot;&gt;A has 1 or more instances of B. &lt;br&gt;B may &lt;b&gt;not &lt;/b&gt;be disposed when A is disposed.&lt;/span&gt;" style="shape=note2;boundedLbl=1;whiteSpace=wrap;html=1;size=25;verticalAlign=middle;align=left;" vertex="1" parent="1">
          <mxGeometry x="-489" y="558" width="169" height="78" as="geometry" />
        </mxCell>
        <mxCell id="FfYlqvqrgsapNUzjtLtr-28" value="&lt;p style=&quot;margin:0px;margin-top:4px;text-align:center;&quot;&gt;&lt;b&gt;A&lt;/b&gt;&lt;/p&gt;&lt;hr size=&quot;1&quot; style=&quot;border-style:solid;&quot;&gt;&lt;div style=&quot;height:2px;&quot;&gt;&lt;/div&gt;" style="verticalAlign=top;align=left;overflow=fill;html=1;whiteSpace=wrap;" vertex="1" parent="1">
          <mxGeometry x="60" y="493" width="140" height="60" as="geometry" />
        </mxCell>
        <mxCell id="FfYlqvqrgsapNUzjtLtr-29" value="&lt;p style=&quot;margin: 4px 0px 0px; text-align: center;&quot;&gt;&lt;b&gt;B&lt;/b&gt;&lt;/p&gt;&lt;hr style=&quot;border-style: solid;&quot; size=&quot;1&quot;&gt;" style="verticalAlign=top;align=left;overflow=fill;html=1;whiteSpace=wrap;" vertex="1" parent="1">
          <mxGeometry x="60" y="667" width="140" height="60" as="geometry" />
        </mxCell>
        <mxCell id="FfYlqvqrgsapNUzjtLtr-30" value="" style="endArrow=diamondThin;endFill=1;endSize=24;html=1;rounded=0;entryX=0.5;entryY=1;entryDx=0;entryDy=0;exitX=0.5;exitY=0;exitDx=0;exitDy=0;" edge="1" parent="1" source="FfYlqvqrgsapNUzjtLtr-29" target="FfYlqvqrgsapNUzjtLtr-28">
          <mxGeometry width="160" relative="1" as="geometry">
            <mxPoint x="16" y="587" as="sourcePoint" />
            <mxPoint x="176" y="587" as="targetPoint" />
          </mxGeometry>
        </mxCell>
        <mxCell id="FfYlqvqrgsapNUzjtLtr-31" value="Composition" style="edgeLabel;html=1;align=center;verticalAlign=middle;resizable=0;points=[];" vertex="1" connectable="0" parent="FfYlqvqrgsapNUzjtLtr-30">
          <mxGeometry x="-0.2932" relative="1" as="geometry">
            <mxPoint as="offset" />
          </mxGeometry>
        </mxCell>
        <mxCell id="FfYlqvqrgsapNUzjtLtr-32" value="1" style="edgeLabel;html=1;align=center;verticalAlign=middle;resizable=0;points=[];" vertex="1" connectable="0" parent="FfYlqvqrgsapNUzjtLtr-30">
          <mxGeometry x="0.4667" relative="1" as="geometry">
            <mxPoint x="6" as="offset" />
          </mxGeometry>
        </mxCell>
        <mxCell id="FfYlqvqrgsapNUzjtLtr-33" value="1..*" style="edgeLabel;html=1;align=center;verticalAlign=middle;resizable=0;points=[];" vertex="1" connectable="0" parent="FfYlqvqrgsapNUzjtLtr-30">
          <mxGeometry x="-0.8526" y="-1" relative="1" as="geometry">
            <mxPoint x="10" y="-2" as="offset" />
          </mxGeometry>
        </mxCell>
        <mxCell id="FfYlqvqrgsapNUzjtLtr-34" style="rounded=0;orthogonalLoop=1;jettySize=auto;html=1;exitX=0;exitY=0;exitDx=169;exitDy=51.5;exitPerimeter=0;endArrow=none;endFill=0;dashed=1;" edge="1" parent="1" source="FfYlqvqrgsapNUzjtLtr-35">
          <mxGeometry relative="1" as="geometry">
            <mxPoint x="129" y="610" as="targetPoint" />
            <mxPoint x="38" y="601.5" as="sourcePoint" />
          </mxGeometry>
        </mxCell>
        <mxCell id="FfYlqvqrgsapNUzjtLtr-35" value="&lt;span style=&quot;background-color: rgb(255, 255, 255);&quot;&gt;A has 1 or more instances of B.&lt;br&gt;B is disposed when A is disposed.&lt;/span&gt;" style="shape=note2;boundedLbl=1;whiteSpace=wrap;html=1;size=25;verticalAlign=middle;align=left;" vertex="1" parent="1">
          <mxGeometry x="-125" y="558" width="169" height="78" as="geometry" />
        </mxCell>
        <mxCell id="FfYlqvqrgsapNUzjtLtr-36" value="" style="endArrow=none;endFill=0;endSize=12;html=1;rounded=0;entryX=0.5;entryY=1;entryDx=0;entryDy=0;exitX=0.5;exitY=0;exitDx=0;exitDy=0;" edge="1" parent="1" source="FfYlqvqrgsapNUzjtLtr-46" target="FfYlqvqrgsapNUzjtLtr-37">
          <mxGeometry width="160" relative="1" as="geometry">
            <mxPoint x="150" y="931" as="sourcePoint" />
            <mxPoint x="158" y="959" as="targetPoint" />
          </mxGeometry>
        </mxCell>
        <mxCell id="FfYlqvqrgsapNUzjtLtr-43" value="Two-Way Association" style="edgeLabel;html=1;align=center;verticalAlign=middle;resizable=0;points=[];" vertex="1" connectable="0" parent="FfYlqvqrgsapNUzjtLtr-36">
          <mxGeometry x="0.3152" relative="1" as="geometry">
            <mxPoint y="18" as="offset" />
          </mxGeometry>
        </mxCell>
        <mxCell id="FfYlqvqrgsapNUzjtLtr-37" value="&lt;p style=&quot;margin:0px;margin-top:4px;text-align:center;&quot;&gt;&lt;b&gt;A&lt;/b&gt;&lt;/p&gt;&lt;hr size=&quot;1&quot; style=&quot;border-style:solid;&quot;&gt;&lt;div style=&quot;height:2px;&quot;&gt;&lt;/div&gt;" style="verticalAlign=top;align=left;overflow=fill;html=1;whiteSpace=wrap;" vertex="1" parent="1">
          <mxGeometry x="60" y="811" width="140" height="60" as="geometry" />
        </mxCell>
        <mxCell id="FfYlqvqrgsapNUzjtLtr-46" value="&lt;p style=&quot;margin: 4px 0px 0px; text-align: center;&quot;&gt;&lt;b&gt;B&lt;/b&gt;&lt;/p&gt;&lt;hr style=&quot;border-style: solid;&quot; size=&quot;1&quot;&gt;" style="verticalAlign=top;align=left;overflow=fill;html=1;whiteSpace=wrap;" vertex="1" parent="1">
          <mxGeometry x="60" y="938" width="140" height="60" as="geometry" />
        </mxCell>
        <mxCell id="FfYlqvqrgsapNUzjtLtr-47" value="" style="endArrow=open;endFill=1;endSize=12;html=1;rounded=0;entryX=0.5;entryY=1;entryDx=0;entryDy=0;exitX=0.5;exitY=0;exitDx=0;exitDy=0;" edge="1" parent="1" source="FfYlqvqrgsapNUzjtLtr-50" target="FfYlqvqrgsapNUzjtLtr-49">
          <mxGeometry width="160" relative="1" as="geometry">
            <mxPoint x="-239" y="963" as="sourcePoint" />
            <mxPoint x="-211" y="959" as="targetPoint" />
          </mxGeometry>
        </mxCell>
        <mxCell id="FfYlqvqrgsapNUzjtLtr-48" value="One-Way Association" style="edgeLabel;html=1;align=center;verticalAlign=middle;resizable=0;points=[];" vertex="1" connectable="0" parent="FfYlqvqrgsapNUzjtLtr-47">
          <mxGeometry x="0.3152" relative="1" as="geometry">
            <mxPoint y="18" as="offset" />
          </mxGeometry>
        </mxCell>
        <mxCell id="FfYlqvqrgsapNUzjtLtr-49" value="&lt;p style=&quot;margin:0px;margin-top:4px;text-align:center;&quot;&gt;&lt;b&gt;A&lt;/b&gt;&lt;/p&gt;&lt;hr size=&quot;1&quot; style=&quot;border-style:solid;&quot;&gt;&lt;div style=&quot;height:2px;&quot;&gt;&lt;/div&gt;" style="verticalAlign=top;align=left;overflow=fill;html=1;whiteSpace=wrap;" vertex="1" parent="1">
          <mxGeometry x="-309" y="811" width="140" height="60" as="geometry" />
        </mxCell>
        <mxCell id="FfYlqvqrgsapNUzjtLtr-50" value="&lt;p style=&quot;margin: 4px 0px 0px; text-align: center;&quot;&gt;&lt;b&gt;B&lt;/b&gt;&lt;/p&gt;&lt;hr style=&quot;border-style: solid;&quot; size=&quot;1&quot;&gt;" style="verticalAlign=top;align=left;overflow=fill;html=1;whiteSpace=wrap;" vertex="1" parent="1">
          <mxGeometry x="-309" y="938" width="140" height="60" as="geometry" />
        </mxCell>
        <mxCell id="FfYlqvqrgsapNUzjtLtr-51" value="B can call A&#39;s properties/methods, but not vice versa" style="shape=note2;boundedLbl=1;whiteSpace=wrap;html=1;size=25;verticalAlign=middle;align=left;" vertex="1" parent="1">
          <mxGeometry x="-500" y="857" width="169" height="78" as="geometry" />
        </mxCell>
        <mxCell id="FfYlqvqrgsapNUzjtLtr-52" value="A and B can call each other" style="shape=note2;boundedLbl=1;whiteSpace=wrap;html=1;size=25;verticalAlign=middle;align=left;" vertex="1" parent="1">
          <mxGeometry x="-132" y="855" width="169" height="78" as="geometry" />
        </mxCell>
      </root>
    </mxGraphModel>
  </diagram>
  <diagram id="qI3UQLHERG8b91KpfmRq" name="BNF">
    <mxGraphModel dx="989" dy="577" grid="0" gridSize="10" guides="1" tooltips="1" connect="1" arrows="1" fold="1" page="0" pageScale="1" pageWidth="827" pageHeight="1169" math="0" shadow="0">
      <root>
        <mxCell id="0" />
        <mxCell id="1" parent="0" />
        <mxCell id="O5d1G0K6f7V7WSPJTf38-1" value="&lt;b&gt;BNF: &lt;/b&gt;Backus-Naur Form&lt;div&gt;&lt;ul&gt;&lt;li&gt;Words that are &lt;b&gt;not &lt;/b&gt;terms (keywords, strings, etc.) are in italics and enclosed between angle bracket, e.g. &lt;i&gt;&amp;lt;constraint&amp;gt;, &amp;lt;boolean&amp;gt;, &amp;lt;name&amp;gt;&lt;/i&gt;&lt;/li&gt;&lt;li&gt;All terms (keywords, strings, etc.) are enclosed between single quote, e.g. &#39;or&#39;&lt;/li&gt;&lt;li&gt;Non-terms production rule definitions are signified with &#39;::=&#39; operator&lt;/li&gt;&lt;li&gt;Repetition of an item is signified by &#39;*&#39;, placed after that item&lt;/li&gt;&lt;li&gt;Alternative choices in a production are separated by &#39;|&#39; symbol, e.g. &amp;lt;&lt;i&gt;option1&lt;/i&gt;&amp;gt; | &amp;lt;&lt;i&gt;option2&lt;/i&gt;&amp;gt;&lt;/li&gt;&lt;li&gt;Optional items are encolsed in square brackets, e.g. &lt;i&gt;[&amp;lt;item-1&amp;gt;]&lt;/i&gt;&lt;/li&gt;&lt;li&gt;Where items need to be grouped, they are enclosed in parenthesis, e.g. &lt;i&gt;(&amp;lt;item-1&amp;gt; | &amp;lt;item-2&amp;gt;)*&lt;/i&gt;&lt;/li&gt;&lt;/ul&gt;&lt;/div&gt;" style="text;strokeColor=none;align=left;fillColor=none;html=1;verticalAlign=top;whiteSpace=wrap;rounded=0;" parent="1" vertex="1">
          <mxGeometry x="170" y="185" width="708" height="201" as="geometry" />
        </mxCell>
        <mxCell id="IjCmykte0pGXIiWWVou3-1" value="Stack" style="swimlane;fontStyle=1;align=center;verticalAlign=top;childLayout=stackLayout;horizontal=1;startSize=26;horizontalStack=0;resizeParent=1;resizeParentMax=0;resizeLast=0;collapsible=1;marginBottom=0;whiteSpace=wrap;html=1;" parent="1" vertex="1">
          <mxGeometry x="198" y="455" width="160" height="103" as="geometry" />
        </mxCell>
        <mxCell id="IjCmykte0pGXIiWWVou3-2" value="- size: integer {size &amp;gt;= 0}" style="text;strokeColor=none;fillColor=none;align=left;verticalAlign=top;spacingLeft=4;spacingRight=4;overflow=hidden;rotatable=0;points=[[0,0.5],[1,0.5]];portConstraint=eastwest;whiteSpace=wrap;html=1;" parent="IjCmykte0pGXIiWWVou3-1" vertex="1">
          <mxGeometry y="26" width="160" height="26" as="geometry" />
        </mxCell>
        <mxCell id="IjCmykte0pGXIiWWVou3-3" value="" style="line;strokeWidth=1;fillColor=none;align=left;verticalAlign=middle;spacingTop=-1;spacingLeft=3;spacingRight=3;rotatable=0;labelPosition=right;points=[];portConstraint=eastwest;strokeColor=inherit;" parent="IjCmykte0pGXIiWWVou3-1" vertex="1">
          <mxGeometry y="52" width="160" height="8" as="geometry" />
        </mxCell>
        <mxCell id="IjCmykte0pGXIiWWVou3-4" value="+ push(type) : bool&lt;div&gt;+ pop() : type&lt;/div&gt;" style="text;strokeColor=none;fillColor=none;align=left;verticalAlign=top;spacingLeft=4;spacingRight=4;overflow=hidden;rotatable=0;points=[[0,0.5],[1,0.5]];portConstraint=eastwest;whiteSpace=wrap;html=1;" parent="IjCmykte0pGXIiWWVou3-1" vertex="1">
          <mxGeometry y="60" width="160" height="43" as="geometry" />
        </mxCell>
        <mxCell id="tbNzi_AmPkG9va4bMYr3-1" style="rounded=0;orthogonalLoop=1;jettySize=auto;html=1;exitX=0;exitY=0;exitDx=169;exitDy=51.5;exitPerimeter=0;endArrow=none;endFill=0;dashed=1;entryX=0.9;entryY=0.538;entryDx=0;entryDy=0;entryPerimeter=0;" parent="1" source="tbNzi_AmPkG9va4bMYr3-2" target="IjCmykte0pGXIiWWVou3-2" edge="1">
          <mxGeometry relative="1" as="geometry">
            <mxPoint x="430" y="499" as="targetPoint" />
            <mxPoint x="598" y="508.5" as="sourcePoint" />
          </mxGeometry>
        </mxCell>
        <mxCell id="tbNzi_AmPkG9va4bMYr3-2" value="&lt;b&gt;Constraints&lt;/b&gt;&lt;div&gt;&lt;i&gt;&amp;lt;constraint&amp;gt;&lt;/i&gt;&lt;span style=&quot;background-color: initial;&quot;&gt;::= ‘{‘ [ &lt;i&gt;&amp;lt;name&amp;gt;&lt;/i&gt;&lt;/span&gt;‘:’ ] &lt;i&gt;&amp;lt;boolean-expression&amp;gt;&lt;/i&gt;&amp;nbsp; ‘ }&lt;/div&gt;" style="shape=note2;boundedLbl=1;whiteSpace=wrap;html=1;size=25;verticalAlign=middle;align=left;" parent="1" vertex="1">
          <mxGeometry x="389" y="448" width="318" height="78" as="geometry" />
        </mxCell>
      </root>
    </mxGraphModel>
  </diagram>
  <diagram id="0lkTPH-l3-epUYS8QeqR" name="flowchart legend">
    <mxGraphModel dx="1834" dy="836" grid="0" gridSize="10" guides="1" tooltips="1" connect="1" arrows="1" fold="1" page="0" pageScale="1" pageWidth="827" pageHeight="1169" math="0" shadow="0">
      <root>
        <mxCell id="0" />
        <mxCell id="1" parent="0" />
        <mxCell id="RgtQz4GgnvKEhGxfMf6W-1" value="Legend" style="swimlane;whiteSpace=wrap;html=1;" vertex="1" parent="1">
          <mxGeometry x="-159" y="84" width="718" height="489" as="geometry" />
        </mxCell>
        <UserObject label="Document" tooltip="Pretty self explanatory - the Document flowchart symbol is for a process step that produces a document." id="RgtQz4GgnvKEhGxfMf6W-2">
          <mxCell style="strokeWidth=2;html=1;shape=mxgraph.flowchart.document2;whiteSpace=wrap;size=0.25;" vertex="1" parent="RgtQz4GgnvKEhGxfMf6W-1">
            <mxGeometry x="551" y="162" width="100" height="60" as="geometry" />
          </mxCell>
        </UserObject>
        <UserObject label="Data&lt;br&gt;(input/output)" tooltip="The Data flowchart shape indicates inputs to and outputs from a process. As such, the shape is more often referred to as an I/O shape than a Data shape." id="RgtQz4GgnvKEhGxfMf6W-3">
          <mxCell style="shape=parallelogram;html=1;strokeWidth=2;perimeter=parallelogramPerimeter;whiteSpace=wrap;rounded=1;arcSize=12;size=0.23;" vertex="1" parent="RgtQz4GgnvKEhGxfMf6W-1">
            <mxGeometry x="541" y="62" width="120" height="60" as="geometry" />
          </mxCell>
        </UserObject>
        <UserObject label="Decision" tooltip="Indicates a question or branch in the process flow. Typically, a Decision  flowchart shape is used when there are 2 options (Yes/No, No/No-Go, etc.)" id="RgtQz4GgnvKEhGxfMf6W-4">
          <mxCell style="strokeWidth=2;html=1;shape=mxgraph.flowchart.decision;whiteSpace=wrap;" vertex="1" parent="RgtQz4GgnvKEhGxfMf6W-1">
            <mxGeometry x="203" y="52" width="100" height="100" as="geometry" />
          </mxCell>
        </UserObject>
        <UserObject label="Display" tooltip="Indicates a process step where information is displayed to a person (e.g., PC user, machine operator)." id="RgtQz4GgnvKEhGxfMf6W-5">
          <mxCell style="strokeWidth=2;html=1;shape=mxgraph.flowchart.display;whiteSpace=wrap;" vertex="1" parent="RgtQz4GgnvKEhGxfMf6W-1">
            <mxGeometry x="373" y="248" width="100" height="60" as="geometry" />
          </mxCell>
        </UserObject>
        <mxCell id="RgtQz4GgnvKEhGxfMf6W-6" value="Start" style="strokeWidth=2;html=1;shape=mxgraph.flowchart.start_1;whiteSpace=wrap;" vertex="1" parent="RgtQz4GgnvKEhGxfMf6W-1">
          <mxGeometry x="42" y="62" width="100" height="60" as="geometry" />
        </mxCell>
        <UserObject label="process" tooltip="Show a Process or action step. This is the most common symbol in both process flowcharts and process maps." id="RgtQz4GgnvKEhGxfMf6W-7">
          <mxCell style="rounded=1;whiteSpace=wrap;html=1;absoluteArcSize=1;arcSize=14;strokeWidth=2;" vertex="1" parent="RgtQz4GgnvKEhGxfMf6W-1">
            <mxGeometry x="193" y="182" width="100" height="60" as="geometry" />
          </mxCell>
        </UserObject>
        <mxCell id="RgtQz4GgnvKEhGxfMf6W-8" value="Start/Terminator" style="strokeWidth=2;html=1;shape=mxgraph.flowchart.terminator;whiteSpace=wrap;" vertex="1" parent="RgtQz4GgnvKEhGxfMf6W-1">
          <mxGeometry x="42" y="152" width="100" height="55" as="geometry" />
        </mxCell>
        <UserObject label="Multi Document" tooltip="Same as Document, except, well, multiple documents. This shape is not as commonly used as the Document flowchart shape, even when multiple documents are implied." id="RgtQz4GgnvKEhGxfMf6W-9">
          <mxCell style="strokeWidth=2;html=1;shape=mxgraph.flowchart.multi-document;whiteSpace=wrap;" vertex="1" parent="RgtQz4GgnvKEhGxfMf6W-1">
            <mxGeometry x="551" y="232" width="120" height="70" as="geometry" />
          </mxCell>
        </UserObject>
        <UserObject label="Manual input" tooltip="Manual Input flowchart shapes show process steps where the operator/ user is prompted for information that must be manually input into a system." id="RgtQz4GgnvKEhGxfMf6W-10">
          <mxCell style="html=1;strokeWidth=2;shape=manualInput;whiteSpace=wrap;rounded=1;size=26;arcSize=11;" vertex="1" parent="RgtQz4GgnvKEhGxfMf6W-1">
            <mxGeometry x="356" y="152" width="100" height="60" as="geometry" />
          </mxCell>
        </UserObject>
        <UserObject label="Manual Operation" tooltip="Manual Operations flowchart shapes show which process steps are not automated. " id="RgtQz4GgnvKEhGxfMf6W-11">
          <mxCell style="verticalLabelPosition=middle;verticalAlign=middle;html=1;shape=trapezoid;perimeter=trapezoidPerimeter;whiteSpace=wrap;size=0.23;arcSize=10;flipV=1;labelPosition=center;align=center;" vertex="1" parent="RgtQz4GgnvKEhGxfMf6W-1">
            <mxGeometry x="359" y="56" width="100" height="60" as="geometry" />
          </mxCell>
        </UserObject>
        <UserObject label="Delay" tooltip="The Delay flowchart symbol depicts any waiting period that is part of a process. Delay shapes are common in process mapping." id="RgtQz4GgnvKEhGxfMf6W-12">
          <mxCell style="strokeWidth=2;html=1;shape=mxgraph.flowchart.delay;whiteSpace=wrap;" vertex="1" parent="RgtQz4GgnvKEhGxfMf6W-1">
            <mxGeometry x="189" y="398" width="100" height="60" as="geometry" />
          </mxCell>
        </UserObject>
        <UserObject label="Predefined Process&lt;br&gt;(Subroutine)" tooltip="A Predefined Process symbol is a marker for another process step or series of process flow steps that are formally defined elsewhere. This shape commonly depicts sub-processes (or subroutines in programming flowcharts). If the sub-process is considered &quot;known&quot; but not actually defined in a process procedure, work instruction, or some other process flowchart or documentation, then it is best not to use this symbol since it implies a formally defined process." id="RgtQz4GgnvKEhGxfMf6W-13">
          <mxCell style="verticalLabelPosition=bottom;verticalAlign=top;html=1;shape=process;whiteSpace=wrap;rounded=1;size=0.14;arcSize=6;" vertex="1" parent="RgtQz4GgnvKEhGxfMf6W-1">
            <mxGeometry x="197" y="272" width="100" height="60" as="geometry" />
          </mxCell>
        </UserObject>
      </root>
    </mxGraphModel>
  </diagram>
</mxfile>
